<svg xmlns="http://www.w3.org/2000/svg" width="1200" height="720" viewBox="0 0 1200 720">
  <rect width="1200" height="720" fill="#fffaf2"/>
  <text x="80" y="62" fill="#1f2937" font-size="46" font-weight="700" font-family="Georgia, serif">Topic Map</text>
  <text x="80" y="94" fill="#6b7280" font-size="22" font-family="'Trebuchet MS', sans-serif">The public catalog groups papers by stable topic slugs, not by daily hype.</text>
  
  <rect x="80" y="110" width="310" height="92" rx="18" fill="#0f172a" stroke="#f97316" stroke-width="3"/>
  <text x="98" y="144" fill="#f8fafc" font-size="24" font-family="Georgia, serif">Foundation Models</text>
  <text x="98" y="176" fill="#cbd5e1" font-size="17" font-family="'Trebuchet MS', sans-serif">48 tracked papers</text>

  <rect x="430" y="110" width="310" height="92" rx="18" fill="#172554" stroke="#22c55e" stroke-width="3"/>
  <text x="448" y="144" fill="#f8fafc" font-size="24" font-family="Georgia, serif">Agents &amp; Tool Use</text>
  <text x="448" y="176" fill="#cbd5e1" font-size="17" font-family="'Trebuchet MS', sans-serif">3 tracked papers</text>

  <rect x="780" y="110" width="310" height="92" rx="18" fill="#1f2937" stroke="#38bdf8" stroke-width="3"/>
  <text x="798" y="144" fill="#f8fafc" font-size="24" font-family="Georgia, serif">Evaluation &amp; Benchmarks</text>
  <text x="798" y="176" fill="#cbd5e1" font-size="17" font-family="'Trebuchet MS', sans-serif">13 tracked papers</text>

  <rect x="80" y="235" width="310" height="92" rx="18" fill="#3f1d2e" stroke="#f59e0b" stroke-width="3"/>
  <text x="98" y="269" fill="#f8fafc" font-size="24" font-family="Georgia, serif">Safety, Alignment &amp; Robustness</text>
  <text x="98" y="301" fill="#cbd5e1" font-size="17" font-family="'Trebuchet MS', sans-serif">10 tracked papers</text>

  <rect x="430" y="235" width="310" height="92" rx="18" fill="#14213d" stroke="#fb7185" stroke-width="3"/>
  <text x="448" y="269" fill="#f8fafc" font-size="24" font-family="Georgia, serif">Theory, Optimization &amp; Statistical Learning</text>
  <text x="448" y="301" fill="#cbd5e1" font-size="17" font-family="'Trebuchet MS', sans-serif">3 tracked papers</text>

  <rect x="780" y="235" width="310" height="92" rx="18" fill="#0f172a" stroke="#f97316" stroke-width="3"/>
  <text x="798" y="269" fill="#f8fafc" font-size="24" font-family="Georgia, serif">Reinforcement Learning</text>
  <text x="798" y="301" fill="#cbd5e1" font-size="17" font-family="'Trebuchet MS', sans-serif">0 tracked papers</text>

  <rect x="80" y="360" width="310" height="92" rx="18" fill="#172554" stroke="#22c55e" stroke-width="3"/>
  <text x="98" y="394" fill="#f8fafc" font-size="24" font-family="Georgia, serif">NeuroAI &amp; Computational Neuroscience</text>
  <text x="98" y="426" fill="#cbd5e1" font-size="17" font-family="'Trebuchet MS', sans-serif">2 tracked papers</text>

  <rect x="430" y="360" width="310" height="92" rx="18" fill="#1f2937" stroke="#38bdf8" stroke-width="3"/>
  <text x="448" y="394" fill="#f8fafc" font-size="24" font-family="Georgia, serif">Automated Research</text>
  <text x="448" y="426" fill="#cbd5e1" font-size="17" font-family="'Trebuchet MS', sans-serif">0 tracked papers</text>

  <rect x="780" y="360" width="310" height="92" rx="18" fill="#3f1d2e" stroke="#f59e0b" stroke-width="3"/>
  <text x="798" y="394" fill="#f8fafc" font-size="24" font-family="Georgia, serif">Interpretability</text>
  <text x="798" y="426" fill="#cbd5e1" font-size="17" font-family="'Trebuchet MS', sans-serif">1 tracked papers</text>

  <rect x="80" y="485" width="310" height="92" rx="18" fill="#14213d" stroke="#fb7185" stroke-width="3"/>
  <text x="98" y="519" fill="#f8fafc" font-size="24" font-family="Georgia, serif">Benchmark Design</text>
  <text x="98" y="551" fill="#cbd5e1" font-size="17" font-family="'Trebuchet MS', sans-serif">0 tracked papers</text>

</svg>